# xmcd CD database file
#
# Track frame offsets:
#	150
#	16962
#	40660
#	57472
#
# Disc length: 1079 seconds
#
# Revision: 1
# Processed by: cddbd v1.5.1PL2 Copyright (c) Steve Scherf et al.
# Submitted via: CDex 1.60beta1
#
DISCID=2a043504
DTITLE=チナッチャブル - 勝利の花びら／ハルハラリ
DYEAR=2006
DGENRE=JPop
TTITLE0=勝利の花びら
TTITLE1=ハルハラリ
TTITLE2=勝利の花びら(オリジナル・カラオケ)
TTITLE3=ハルハラリ(オリジナル・カラオケ)
EXTD=YEAR: 2006
EXTT0=
EXTT1=
EXTT2=
EXTT3=
PLAYORDER=
